<?xml version="1.0" standalone="no"?>
<!DOCTYPE svg PUBLIC "-//W3C//DTD SVG 20010904//EN"
 "http://www.w3.org/TR/2001/REC-SVG-20010904/DTD/svg10.dtd">
<svg version="1.0" xmlns="http://www.w3.org/2000/svg"
 width="512.000000pt" height="512.000000pt" viewBox="0 0 512.000000 512.000000"
 preserveAspectRatio="xMidYMid meet">

<g transform="translate(0.000000,512.000000) scale(0.100000,-0.100000)"
fill="#000000" stroke="none">
<path d="M2458 4305 c-179 -45 -308 -183 -339 -364 -14 -79 -6 -123 32 -166
40 -45 95 -62 148 -46 50 14 98 69 106 118 12 77 26 112 55 137 62 52 154 43
209 -19 59 -67 50 -151 -22 -208 -181 -141 -244 -264 -235 -459 3 -82 17 -112
72 -152 39 -30 120 -29 162 1 46 33 64 79 64 163 0 92 18 130 80 170 146 94
228 250 217 414 -9 138 -63 242 -174 332 -97 79 -248 111 -375 79z"/>
<path d="M2505 2806 c-102 -44 -122 -172 -40 -245 63 -55 142 -53 200 4 115
116 -11 306 -160 241z"/>
<path d="M1610 1244 c0 -168 4 -242 16 -294 28 -126 112 -235 227 -295 l55
-29 4 -181 c3 -170 5 -183 30 -237 34 -72 98 -137 174 -174 l59 -29 390 0 390
0 63 34 c72 39 120 88 159 163 27 51 28 59 31 238 l4 185 49 23 c65 31 146
107 186 173 55 92 63 145 63 411 l0 238 -950 0 -950 0 0 -226z"/>
</g>
</svg>
